<svg xmlns="http://www.w3.org/2000/svg" width="805" height="600"><rect width="805" height="600" x="0" y="0" fill="#FFFFFF" id="background"/><g id="viz"><g transform="translate(0,0)"><g transform="translate(50,20)"><g id="primera" fill="#e5f3fb"><rect x="406.81757250792106" y="522.6666666666666" width="66.63782598098952" height="37.33333333333337"/><rect x="609.7270290031685" y="476" width="66.63782598098952" height="84"/><rect x="136.27163051425788" y="532" width="66.63782598098952" height="28"/><rect x="0.9986595174262902" y="546" width="66.63782598098952" height="14"/><rect x="339.1810870095053" y="546" width="66.63782598098952" height="14"/><rect x="542.0905435047526" y="536.6666666666667" width="66.63782598098952" height="23.333333333333258"/><rect x="677.3635145015843" y="560" width="66.63782598098952" height="0"/><rect x="203.90811601267367" y="546" width="66.63782598098952" height="14"/><rect x="68.63514501584208" y="546" width="66.63782598098952" height="14"/><rect x="271.54460151108947" y="532" width="66.63782598098952" height="28"/><rect x="474.4540580063368" y="522.6666666666666" width="66.63782598098952" height="37.33333333333337"/></g><g id="segunda" fill="#2b8cbe"><rect x="406.81757250792106" y="485.33333333333337" width="66.63782598098952" height="37.33333333333337"/><rect x="609.7270290031685" y="401.33333333333326" width="66.63782598098952" height="74.66666666666663"/><rect x="136.27163051425788" y="494.66666666666663" width="66.63782598098952" height="37.33333333333337"/><rect x="0.9986595174262902" y="508.6666666666667" width="66.63782598098952" height="37.33333333333337"/><rect x="339.1810870095053" y="508.6666666666667" width="66.63782598098952" height="37.33333333333337"/><rect x="542.0905435047526" y="490" width="66.63782598098952" height="46.66666666666674"/><rect x="677.3635145015843" y="522.6666666666666" width="66.63782598098952" height="37.33333333333337"/><rect x="203.90811601267367" y="508.6666666666667" width="66.63782598098952" height="37.33333333333337"/><rect x="68.63514501584208" y="508.6666666666667" width="66.63782598098952" height="37.33333333333337"/><rect x="271.54460151108947" y="494.66666666666663" width="66.63782598098952" height="37.33333333333337"/><rect x="474.4540580063368" y="485.33333333333337" width="66.63782598098952" height="37.33333333333337"/></g><g id="tercera" fill="#05587a"><rect x="406.81757250792106" y="447.99999999999994" width="66.63782598098952" height="37.33333333333337"/><rect x="609.7270290031685" y="317.3333333333333" width="66.63782598098952" height="84"/><rect x="136.27163051425788" y="457.3333333333333" width="66.63782598098952" height="37.33333333333337"/><rect x="0.9986595174262902" y="494.66666666666663" width="66.63782598098952" height="14"/><rect x="339.1810870095053" y="471.3333333333333" width="66.63782598098952" height="37.33333333333337"/><rect x="542.0905435047526" y="443.3333333333333" width="66.63782598098952" height="46.66666666666674"/><rect x="677.3635145015843" y="485.33333333333337" width="66.63782598098952" height="37.33333333333337"/><rect x="203.90811601267367" y="471.3333333333333" width="66.63782598098952" height="37.33333333333337"/><rect x="68.63514501584208" y="471.3333333333333" width="66.63782598098952" height="37.33333333333337"/><rect x="271.54460151108947" y="457.3333333333333" width="66.63782598098952" height="37.33333333333337"/><rect x="474.4540580063368" y="447.99999999999994" width="66.63782598098952" height="37.33333333333337"/></g><g id="cuarta" fill="#134158"><rect x="406.81757250792106" y="410.6666666666667" width="66.63782598098952" height="37.33333333333337"/><rect x="609.7270290031685" y="224" width="66.63782598098952" height="93.33333333333331"/><rect x="136.27163051425788" y="457.3333333333333" width="66.63782598098952" height="0"/><rect x="0.9986595174262902" y="457.3333333333333" width="66.63782598098952" height="37.33333333333337"/><rect x="339.1810870095053" y="424.66666666666663" width="66.63782598098952" height="46.66666666666674"/><rect x="542.0905435047526" y="396.66666666666663" width="66.63782598098952" height="46.66666666666674"/><rect x="677.3635145015843" y="392" width="66.63782598098952" height="93.33333333333331"/><rect x="203.90811601267367" y="434" width="66.63782598098952" height="37.33333333333337"/><rect x="68.63514501584208" y="471.3333333333333" width="66.63782598098952" height="0"/><rect x="271.54460151108947" y="420" width="66.63782598098952" height="37.33333333333337"/><rect x="474.4540580063368" y="401.33333333333326" width="66.63782598098952" height="46.66666666666674"/></g><g id="quinta" fill="#6aa1be"><rect x="406.81757250792106" y="373.33333333333337" width="66.63782598098952" height="37.33333333333337"/><rect x="609.7270290031685" y="149.33333333333331" width="66.63782598098952" height="74.66666666666669"/><rect x="136.27163051425788" y="420" width="66.63782598098952" height="37.33333333333337"/><rect x="0.9986595174262902" y="420" width="66.63782598098952" height="37.33333333333337"/><rect x="339.1810870095053" y="387.3333333333333" width="66.63782598098952" height="37.33333333333337"/><rect x="542.0905435047526" y="359.3333333333333" width="66.63782598098952" height="37.33333333333337"/><rect x="677.3635145015843" y="354.66666666666663" width="66.63782598098952" height="37.33333333333337"/><rect x="203.90811601267367" y="396.66666666666663" width="66.63782598098952" height="37.33333333333337"/><rect x="68.63514501584208" y="434" width="66.63782598098952" height="37.33333333333337"/><rect x="271.54460151108947" y="382.6666666666667" width="66.63782598098952" height="37.33333333333337"/><rect x="474.4540580063368" y="363.99999999999994" width="66.63782598098952" height="37.33333333333337"/></g><g id="sexta" fill="#005cc9"><rect x="406.81757250792106" y="336.00000000000006" width="66.63782598098952" height="37.33333333333337"/><rect x="609.7270290031685" y="74.66666666666666" width="66.63782598098952" height="74.66666666666663"/><rect x="136.27163051425788" y="382.6666666666667" width="66.63782598098952" height="37.33333333333337"/><rect x="0.9986595174262902" y="420" width="66.63782598098952" height="0"/><rect x="339.1810870095053" y="350" width="66.63782598098952" height="37.33333333333337"/><rect x="542.0905435047526" y="322" width="66.63782598098952" height="37.33333333333337"/><rect x="677.3635145015843" y="317.3333333333333" width="66.63782598098952" height="37.33333333333337"/><rect x="203.90811601267367" y="359.3333333333333" width="66.63782598098952" height="37.33333333333337"/><rect x="68.63514501584208" y="396.66666666666663" width="66.63782598098952" height="37.33333333333337"/><rect x="271.54460151108947" y="345.33333333333337" width="66.63782598098952" height="37.33333333333337"/><rect x="474.4540580063368" y="326.66666666666663" width="66.63782598098952" height="37.33333333333337"/></g><g id="septima" fill="#3d7591"><rect x="406.81757250792106" y="312.6666666666667" width="66.63782598098952" height="23.333333333333258"/><rect x="609.7270290031685" y="27.999999999999964" width="66.63782598098952" height="46.66666666666674"/><rect x="136.27163051425788" y="359.3333333333333" width="66.63782598098952" height="23.333333333333258"/><rect x="0.9986595174262902" y="420" width="66.63782598098952" height="0"/><rect x="339.1810870095053" y="326.66666666666663" width="66.63782598098952" height="23.333333333333258"/><rect x="542.0905435047526" y="298.66666666666674" width="66.63782598098952" height="23.333333333333258"/><rect x="677.3635145015843" y="280" width="66.63782598098952" height="37.33333333333337"/><rect x="203.90811601267367" y="336.00000000000006" width="66.63782598098952" height="23.333333333333258"/><rect x="68.63514501584208" y="396.66666666666663" width="66.63782598098952" height="0"/><rect x="271.54460151108947" y="331.33333333333337" width="66.63782598098952" height="14"/><rect x="474.4540580063368" y="303.33333333333337" width="66.63782598098952" height="23.333333333333258"/></g><g id="xAxis" transform="translate(0,560)" fill="none" font-size="10" font-family="sans-serif" text-anchor="middle"><path class="domain" stroke="currentColor" d="M0,0H745"/><g class="tick" opacity="1" transform="translate(34.31757250792105,0)"><line stroke="currentColor" y2="6"/><text fill="currentColor" y="9" dy="0.71em">4</text></g><g class="tick" opacity="1" transform="translate(101.95405800633685,0)"><line stroke="currentColor" y2="6"/><text fill="currentColor" y="9" dy="0.71em">4.5</text></g><g class="tick" opacity="1" transform="translate(169.59054350475265,0)"><line stroke="currentColor" y2="6"/><text fill="currentColor" y="9" dy="0.71em">5.3</text></g><g class="tick" opacity="1" transform="translate(237.22702900316844,0)"><line stroke="currentColor" y2="6"/><text fill="currentColor" y="9" dy="0.71em">5.8</text></g><g class="tick" opacity="1" transform="translate(304.86351450158423,0)"><line stroke="currentColor" y2="6"/><text fill="currentColor" y="9" dy="0.71em">5.9</text></g><g class="tick" opacity="1" transform="translate(372.50000000000006,0)"><line stroke="currentColor" y2="6"/><text fill="currentColor" y="9" dy="0.71em">6</text></g><g class="tick" opacity="1" transform="translate(440.1364854984158,0)"><line stroke="currentColor" y2="6"/><text fill="currentColor" y="9" dy="0.71em">6.3</text></g><g class="tick" opacity="1" transform="translate(507.7729709968316,0)"><line stroke="currentColor" y2="6"/><text fill="currentColor" y="9" dy="0.71em">6.5</text></g><g class="tick" opacity="1" transform="translate(575.4094564952474,0)"><line stroke="currentColor" y2="6"/><text fill="currentColor" y="9" dy="0.71em">6.6</text></g><g class="tick" opacity="1" transform="translate(643.0459419936632,0)"><line stroke="currentColor" y2="6"/><text fill="currentColor" y="9" dy="0.71em">6.7</text></g><g class="tick" opacity="1" transform="translate(710.682427492079,0)"><line stroke="currentColor" y2="6"/><text fill="currentColor" y="9" dy="0.71em">7</text></g></g><g id="yAxis" fill="none" font-size="10" font-family="sans-serif" text-anchor="end"><path class="domain" stroke="currentColor" d="M0,560V0"/><g class="tick" opacity="1" transform="translate(0,560)"><line stroke="currentColor" x2="-6"/><text fill="currentColor" x="-9" dy="0.32em">0</text></g><g class="tick" opacity="1" transform="translate(0,513.3333333333333)"><line stroke="currentColor" x2="-6"/><text fill="currentColor" x="-9" dy="0.32em">1</text></g><g class="tick" opacity="1" transform="translate(0,466.6666666666667)"><line stroke="currentColor" x2="-6"/><text fill="currentColor" x="-9" dy="0.32em">2</text></g><g class="tick" opacity="1" transform="translate(0,420)"><line stroke="currentColor" x2="-6"/><text fill="currentColor" x="-9" dy="0.32em">3</text></g><g class="tick" opacity="1" transform="translate(0,373.33333333333337)"><line stroke="currentColor" x2="-6"/><text fill="currentColor" x="-9" dy="0.32em">4</text></g><g class="tick" opacity="1" transform="translate(0,326.66666666666663)"><line stroke="currentColor" x2="-6"/><text fill="currentColor" x="-9" dy="0.32em">5</text></g><g class="tick" opacity="1" transform="translate(0,280)"><line stroke="currentColor" x2="-6"/><text fill="currentColor" x="-9" dy="0.32em">6</text></g><g class="tick" opacity="1" transform="translate(0,233.33333333333331)"><line stroke="currentColor" x2="-6"/><text fill="currentColor" x="-9" dy="0.32em">7</text></g><g class="tick" opacity="1" transform="translate(0,186.66666666666669)"><line stroke="currentColor" x2="-6"/><text fill="currentColor" x="-9" dy="0.32em">8</text></g><g class="tick" opacity="1" transform="translate(0,140)"><line stroke="currentColor" x2="-6"/><text fill="currentColor" x="-9" dy="0.32em">9</text></g><g class="tick" opacity="1" transform="translate(0,93.33333333333331)"><line stroke="currentColor" x2="-6"/><text fill="currentColor" x="-9" dy="0.32em">10</text></g><g class="tick" opacity="1" transform="translate(0,46.666666666666686)"><line stroke="currentColor" x2="-6"/><text fill="currentColor" x="-9" dy="0.32em">11</text></g><g class="tick" opacity="1" transform="translate(0,0)"><line stroke="currentColor" x2="-6"/><text fill="currentColor" x="-9" dy="0.32em">12</text></g></g><text y="556" x="745" text-anchor="end" style="font-family: Arial, sans-serif; font-size: 12px; fill: rgb(123, 123, 123); font-weight: bold;">nota</text></g><text x="4" y="4" style="font-family: Arial, sans-serif; font-size: 12px; fill: black; font-weight: bold; dominant-baseline: hanging;"/></g><g id="grid"><rect x="0" y="0" width="805" height="600" fill="none" stroke="#ccc"/></g></g></svg>